<svg width="50" height="50" viewBox="0 0 50 50" fill="none" xmlns="http://www.w3.org/2000/svg">
<path d="M39.8681 25.7524C40.3606 25.7524 40.7599 25.4153 40.7599 24.9994C40.7599 24.5836 40.3606 24.2465 39.8681 24.2465C39.3755 24.2465 38.9763 24.5836 38.9763 24.9994C38.9763 25.4153 39.3755 25.7524 39.8681 25.7524Z" fill="#1F1F1F"/>
<path d="M36.4302 25.7524C36.9227 25.7524 37.322 25.4153 37.322 24.9994C37.322 24.5836 36.9227 24.2465 36.4302 24.2465C35.9376 24.2465 35.5384 24.5836 35.5384 24.9994C35.5384 25.4153 35.9376 25.7524 36.4302 25.7524Z" fill="#1F1F1F"/>
<path d="M33.0324 25.7524H10.3895C9.89906 25.7524 9.49774 25.4136 9.49774 24.9994C9.49774 24.5853 9.89906 24.2465 10.3895 24.2465H33.0324C33.5229 24.2465 33.9242 24.5853 33.9242 24.9994C33.9242 25.4136 33.5229 25.7524 33.0324 25.7524Z" fill="#1F1F1F"/>
<path d="M16.3111 31.6369C16.0569 31.6369 15.8072 31.5465 15.6333 31.3696L9.70732 25.4851C9.42194 25.2027 9.42194 24.7924 9.70732 24.51L15.6289 18.6293C15.9455 18.3131 16.5118 18.2716 16.8863 18.5427C17.2609 18.81 17.3055 19.2882 16.9889 19.6044L11.5578 24.9994L16.9889 30.3945C17.3099 30.7107 17.2609 31.1851 16.8863 31.4562C16.7213 31.5766 16.5162 31.6369 16.3111 31.6369Z" fill="#1F1F1F"/>
</svg>
