<svg width="50" height="50" viewBox="0 0 50 50" fill="none" xmlns="http://www.w3.org/2000/svg">
<path d="M10.1319 25.7524C9.63942 25.7524 9.24014 25.4153 9.24014 24.9994C9.24014 24.5836 9.63942 24.2465 10.1319 24.2465C10.6245 24.2465 11.0237 24.5836 11.0237 24.9994C11.0237 25.4153 10.6245 25.7524 10.1319 25.7524Z" fill="#1F1F1F"/>
<path d="M13.5698 25.7524C13.0773 25.7524 12.678 25.4153 12.678 24.9994C12.678 24.5836 13.0773 24.2465 13.5698 24.2465C14.0624 24.2465 14.4616 24.5836 14.4616 24.9994C14.4616 25.4153 14.0624 25.7524 13.5698 25.7524Z" fill="#1F1F1F"/>
<path d="M16.9676 25.7524H39.6105C40.1009 25.7524 40.5023 25.4136 40.5023 24.9994C40.5023 24.5853 40.1009 24.2465 39.6105 24.2465H16.9676C16.4771 24.2465 16.0758 24.5853 16.0758 24.9994C16.0758 25.4136 16.4771 25.7524 16.9676 25.7524Z" fill="#1F1F1F"/>
<path d="M33.6889 31.6369C33.9431 31.6369 34.1928 31.5465 34.3667 31.3696L40.2927 25.4851C40.5781 25.2027 40.5781 24.7924 40.2927 24.51L34.3711 18.6293C34.0545 18.3131 33.4882 18.2716 33.1137 18.5427C32.7391 18.81 32.6945 19.2882 33.0111 19.6044L38.4422 24.9994L33.0111 30.3945C32.6901 30.7107 32.7391 31.1851 33.1137 31.4562C33.2787 31.5766 33.4838 31.6369 33.6889 31.6369Z" fill="#1F1F1F"/>
</svg>
